<svg width="106" height="40" viewBox="0 0 106 40" fill="none" xmlns="http://www.w3.org/2000/svg">
<path d="M86.8368 8.19244C87.3313 8.19244 87.8394 8.23887 88.3619 8.33173C94.2878 9.38747 99.6304 10.3374 104.997 11.2742L106 11.4488L105.851 12.4804C104.869 19.3265 103.927 24.9961 102.888 30.3222C102.378 32.9378 100.542 35.066 97.9784 36.0131C95.3511 36.9844 92.4927 36.4904 90.3318 34.6928C87.4182 32.2684 86.5805 28.7845 88.0323 25.1335C88.1283 24.8912 88.2234 24.621 88.131 24.4863C88.0377 24.3498 87.7597 24.3498 87.5052 24.361C84.9376 24.4668 82.6535 23.5578 81.074 21.7945C79.4854 20.021 78.7908 17.5929 79.1177 14.9568C79.3532 13.058 80.6392 11.0087 82.3944 9.73567C83.6986 8.70778 85.1875 8.19059 86.8368 8.19059L86.8368 8.19244ZM103.644 13.2019C98.6088 12.3216 93.5642 11.4237 88.0051 10.433C86.2907 10.1275 84.9104 10.4432 83.6615 11.4275L83.5954 11.4776C82.3338 12.3922 81.3402 13.9336 81.1808 15.2261C80.9327 17.2289 81.439 19.0498 82.6064 20.3534C83.7647 21.6469 85.4756 22.3154 87.4201 22.2319C87.8303 22.2151 89.0792 22.1613 89.8337 23.2625C90.5863 24.361 90.1144 25.5495 89.9596 25.9395C88.8456 28.7409 89.427 31.195 91.6432 33.0381C93.2327 34.3603 95.3366 34.7234 97.2738 34.0075C99.1468 33.3157 100.484 31.7818 100.849 29.9043C101.828 24.8837 102.721 19.5521 103.645 13.2009L103.644 13.2019Z" fill="#08DC7D"/>
<path d="M68.8709 12.629L69.5529 13.4024C74.0831 18.5382 77.751 22.8893 81.0966 27.0955C82.7413 29.1634 83.1751 31.9684 82.2568 34.5999C81.3158 37.2964 79.1268 39.2435 76.3998 39.8099C72.7209 40.5722 69.5664 39.0197 67.7424 35.5489C67.621 35.3177 67.4789 35.0716 67.3186 35.0586C67.1528 35.0493 66.9789 35.2666 66.8259 35.4746C65.2735 37.5749 63.1352 38.8015 60.8031 38.9297C58.4565 39.0578 56.1887 38.0633 54.4127 36.1283C53.1329 34.7355 52.4093 32.4151 52.5678 30.2172L52.5678 30.2154C52.6402 28.025 53.5622 26.1354 55.3066 24.6005C59.854 20.5995 63.9549 16.9884 68.1029 13.3124L68.8718 12.6308L68.8709 12.629ZM74.5839 37.8702C75.034 37.8702 75.5013 37.8201 75.9868 37.7198C77.9929 37.3038 79.6041 35.8692 80.2978 33.8822C80.968 31.9601 80.6646 29.9275 79.4845 28.4437C76.3309 24.4789 72.8857 20.3813 68.6916 15.6068C64.8026 19.0516 60.9272 22.4631 56.6605 26.218C55.341 27.3796 54.7007 28.6722 54.6463 30.285L54.6436 30.3491C54.5277 31.9517 55.0566 33.7169 55.9279 34.6658C57.2773 36.1357 58.9718 36.8943 60.6926 36.7996C62.4025 36.7058 63.992 35.7782 65.1685 34.1867C65.4166 33.8506 66.1693 32.8255 67.4798 32.9332C68.7867 33.0363 69.3799 34.1672 69.5755 34.5386C70.7311 36.7374 72.4465 37.8711 74.5848 37.8711L74.5839 37.8702Z" fill="#006AE0"/>
<path d="M40.8954 4.87673e-07C42.7349 5.09608e-07 44.4285 0.700116 45.9391 2.08734C50.405 6.1896 54.4344 9.88887 58.5262 13.6206L59.2861 14.3143L58.6268 15.1082C54.2514 20.3831 50.5228 24.6795 46.891 28.6294C45.1059 30.571 42.4496 31.377 39.7851 30.7883C37.0554 30.1838 34.8863 28.2125 33.9833 25.5142C32.7652 21.8753 33.8556 18.4657 36.9739 16.1593C37.1812 16.006 37.4013 15.8287 37.3923 15.6643C37.3841 15.5139 37.2084 15.3821 36.9259 15.2177C34.6925 13.9141 33.2262 11.9001 32.7987 9.54717C32.3685 7.18034 33.0342 4.74387 34.6734 2.68531C35.8535 1.20338 38.0045 0.163422 40.151 0.0380712L40.1546 0.0380712C40.4036 0.013001 40.65 0.000931271 40.8945 0.000931274L40.8954 4.87673e-07ZM40.2524 1.09845L40.2071 0.619336L40.2144 0.751183L40.2533 1.09845L40.2524 1.09845ZM56.3825 14.5204C52.5479 11.0198 48.7413 7.52576 44.5507 3.67606C43.2547 2.48568 41.9216 2.00377 40.3529 2.15977L40.2868 2.16534C38.7281 2.25634 37.0889 3.02423 36.2855 4.03355C35.0402 5.5972 34.5285 7.41712 34.8446 9.15626C35.1589 10.8824 36.2638 12.3764 37.9556 13.3644C38.3133 13.5733 39.3993 14.2075 39.4699 15.5501C39.5405 16.8919 38.5244 17.643 38.1911 17.8891C35.8001 19.658 35.0248 22.0564 35.9504 24.8225C36.6152 26.8077 38.2128 28.258 40.2234 28.7037C42.1706 29.1346 44.0961 28.5607 45.3767 27.167C48.7993 23.4445 52.3124 19.4073 56.3816 14.5213L56.3825 14.5204Z" fill="#FFC8B2"/>
<path d="M21.9695 9.60752C23.4793 9.60752 25.0144 10.0634 26.4535 10.9576C28.0502 11.9502 29.3535 13.9893 29.7728 16.1509C30.2737 18.2819 29.8788 20.3544 28.5982 22.3117C25.2553 27.4205 22.2412 32.0288 19.2108 36.6956L18.6475 37.5638L17.7889 37.0057C12.0877 33.3 7.4189 30.1123 3.09611 26.9729C0.972293 25.4307 -0.177016 22.8456 0.0222326 20.0591C0.22601 17.2039 1.82816 14.7265 4.30881 13.4349C7.65347 11.6921 11.0987 12.3235 13.7613 15.1694C13.938 15.3579 14.1399 15.5557 14.2975 15.5251C14.4415 15.4963 14.5448 15.2985 14.6643 14.9893C15.6126 12.5398 17.3542 10.771 19.5676 10.0096C20.3483 9.74123 21.1562 9.60752 21.9722 9.60752L21.9695 9.60752ZM18.0434 34.6445C20.8872 30.2692 23.7338 25.9163 26.871 21.1232C27.841 19.6412 28.12 18.2206 27.7513 16.6504L27.7378 16.5892C27.4316 15.0134 26.4617 13.4572 25.3757 12.7812C23.6912 11.7348 21.8635 11.4683 20.2279 12.031C18.6049 12.59 17.3152 13.9196 16.5961 15.7758C16.4449 16.1667 15.983 17.3589 14.696 17.617C13.409 17.8761 12.5432 16.9494 12.2588 16.6449C10.2174 14.4628 7.79384 14.0097 5.2498 15.3347C3.42486 16.2855 2.24567 18.1092 2.09623 20.2132C1.95133 22.2495 2.77369 24.1251 4.29794 25.2319C8.37258 28.1902 12.7606 31.195 18.0443 34.6445L18.0434 34.6445Z" fill="#FFDD64"/>
</svg>
