<svg width="79" height="395" viewBox="0 0 79 395" fill="none" xmlns="http://www.w3.org/2000/svg">
<path d="M116.097 323.591C116.097 325.434 115.927 327.327 115.588 329.274C111.735 351.356 108.268 371.264 104.848 391.264L104.211 395L100.446 394.446C75.4579 390.784 54.7639 387.275 35.3239 383.404C25.7767 381.503 18.0089 374.663 14.552 365.108C11.007 355.318 12.81 344.667 19.3713 336.615C28.2203 325.758 40.9363 322.636 54.2623 328.046C55.1469 328.403 56.1331 328.758 56.6245 328.414C57.1227 328.066 57.1227 327.03 57.0821 326.082C56.6957 316.514 60.0137 308.002 66.4496 302.117C72.9228 296.197 81.7854 293.609 91.4071 294.827C98.3378 295.704 105.818 300.497 110.464 307.037C114.216 311.897 116.104 317.445 116.104 323.591H116.097ZM97.8125 386.222C101.025 367.457 104.303 348.659 107.919 327.944C109.034 321.556 107.882 316.413 104.289 311.759L104.106 311.512C100.768 306.811 95.1419 303.109 90.4242 302.515C83.1139 301.59 76.4678 303.477 71.7095 307.827C66.9885 312.143 64.5483 318.519 64.8533 325.764C64.9143 327.293 65.1109 331.947 61.0914 334.758C57.0821 337.563 52.744 335.805 51.3206 335.227C41.0956 331.076 32.1381 333.243 25.4107 341.501C20.5846 347.424 19.2595 355.264 21.8725 362.483C24.3974 369.462 29.9962 374.443 36.849 375.807C55.174 379.455 74.6343 382.783 97.8159 386.225L97.8125 386.222Z" fill="#08DC7D"/>
<path d="M99.9036 256.644L97.0805 259.185C78.3353 276.066 62.4538 289.734 47.1011 302.201C39.5535 308.33 29.315 309.946 19.7102 306.524C9.8682 303.018 2.76121 294.861 0.693848 284.699C-2.08862 270.99 3.57799 259.236 16.2465 252.439C17.0904 251.987 17.9885 251.457 18.036 250.859C18.0699 250.242 17.2768 249.594 16.5177 249.023C8.85146 243.239 4.37443 235.271 3.90673 226.581C3.43903 217.836 7.06878 209.386 14.1317 202.768C19.2154 197.999 27.6848 195.303 35.7069 195.893H35.7136C43.7086 196.163 50.6054 199.599 56.2077 206.099C70.8114 223.044 83.9917 238.325 97.4092 253.782L99.8969 256.647L99.9036 256.644ZM7.77372 277.932C7.77372 279.61 7.95674 281.351 8.32276 283.16C9.84109 290.635 15.0773 296.639 22.33 299.224C29.3455 301.722 36.7643 300.591 42.1801 296.194C56.6516 284.443 71.6078 271.605 89.0347 255.976C76.4611 241.484 64.0094 227.043 50.3038 211.144C46.064 206.227 41.3464 203.841 35.4595 203.638L35.2256 203.628C29.376 203.196 22.9333 205.167 19.4696 208.414C14.1046 213.442 11.3357 219.757 11.6814 226.169C12.0237 232.541 15.4094 238.464 21.2184 242.847C22.4452 243.772 26.1868 246.577 25.7937 251.46C25.4175 256.33 21.2895 258.541 19.9339 259.27C11.9085 263.576 7.77034 269.968 7.77034 277.936L7.77372 277.932Z" fill="#006AE0"/>
<path d="M145.999 152.398C145.999 159.252 143.444 165.563 138.38 171.193C123.407 187.834 109.905 202.849 96.284 218.096L93.7524 220.928L90.8547 218.471C71.6011 202.167 55.9196 188.273 41.5023 174.74C34.4156 168.088 31.4739 158.189 33.6226 148.26C35.8289 138.089 43.024 130.006 52.8728 126.641C66.1547 122.102 78.5996 126.165 87.0182 137.785C87.5774 138.558 88.2247 139.378 88.8246 139.344C89.3736 139.314 89.8549 138.659 90.4548 137.606C95.2131 129.284 102.564 123.82 111.152 122.227C119.791 120.624 128.684 123.104 136.198 129.213C141.607 133.61 145.403 141.625 145.86 149.624V149.637C145.952 150.565 145.996 151.483 145.996 152.395L145.999 152.398ZM141.99 150.002L143.739 149.833L143.257 149.86L141.99 150.005V150.002ZM93 210.108C105.777 195.819 118.53 181.634 132.582 166.019C136.926 161.189 138.685 156.222 138.116 150.376L138.096 150.13C137.764 144.322 134.961 138.213 131.277 135.22C125.569 130.579 118.927 128.673 112.579 129.851C106.279 131.022 100.825 135.139 97.2194 141.443C96.4569 142.776 94.1421 146.823 89.2414 147.086C84.3442 147.349 81.6024 143.563 80.7042 142.321C74.248 133.411 65.4939 130.522 55.3977 133.971C48.1517 136.448 42.8579 142.402 41.2311 149.894C39.6586 157.15 41.7531 164.325 46.8401 169.097C60.4271 181.85 75.163 194.941 92.9966 210.105L93 210.108Z" fill="#FFC8B2"/>
<path d="M110.932 81.8736C110.932 87.4995 109.268 93.2198 106.004 98.5825C102.381 104.532 94.9386 109.389 87.0487 110.951C79.2707 112.818 71.7061 111.346 64.5619 106.574C45.9149 94.1176 29.0947 82.886 12.061 71.5938L8.89213 69.4946L10.929 66.2952C24.455 45.0505 36.0898 27.6531 47.5485 11.5449C53.1778 3.6309 62.6131 -0.65181 72.7839 0.0906577C83.2054 0.85 92.2476 6.82015 96.9619 16.0639C103.323 28.5272 101.019 41.3652 90.631 51.2872C89.943 51.9453 89.2211 52.6979 89.333 53.2851C89.438 53.8217 90.1599 54.2065 91.2885 54.652C100.229 58.1855 106.685 64.6753 109.464 72.9234C110.444 75.8326 110.932 78.843 110.932 81.8837V81.8736ZM19.5475 67.2436C35.5171 77.8406 51.4053 88.4478 68.8999 100.138C74.309 103.753 79.4943 104.792 85.2253 103.419L85.449 103.368C91.2004 102.227 96.8805 98.6129 99.3478 94.5664C103.167 88.2892 104.14 81.4787 102.086 75.3837C100.046 69.336 95.1927 64.5302 88.4179 61.8505C86.9911 61.2869 82.6394 59.5658 81.6973 54.7701C80.7517 49.9744 84.134 46.748 85.2457 45.6883C93.2101 38.0814 94.864 29.0503 90.0277 19.5703C86.5573 12.77 79.901 8.37594 72.2213 7.81909C64.7889 7.27911 57.9429 10.3435 53.9031 16.0234C43.1053 31.2069 32.1381 47.558 19.5475 67.2469V67.2436Z" fill="#FFDD64"/>
</svg>
